<svg id="visual" viewBox="0 0 900 600" width="900" height="600" xmlns="http://www.w3.org/2000/svg" xmlns:xlink="http://www.w3.org/1999/xlink" version="1.1"><rect x="0" y="0" width="900" height="600" fill="#001220"></rect><defs><linearGradient id="grad1_0" x1="33.3%" y1="100%" x2="100%" y2="0%"><stop offset="20%" stop-color="#0099ff" stop-opacity="1"></stop><stop offset="80%" stop-color="#0099ff" stop-opacity="1"></stop></linearGradient></defs><defs><linearGradient id="grad1_1" x1="33.3%" y1="100%" x2="100%" y2="0%"><stop offset="20%" stop-color="#0099ff" stop-opacity="1"></stop><stop offset="80%" stop-color="#0075c1" stop-opacity="1"></stop></linearGradient></defs><defs><linearGradient id="grad1_2" x1="33.3%" y1="100%" x2="100%" y2="0%"><stop offset="20%" stop-color="#005287" stop-opacity="1"></stop><stop offset="80%" stop-color="#0075c1" stop-opacity="1"></stop></linearGradient></defs><defs><linearGradient id="grad1_3" x1="33.3%" y1="100%" x2="100%" y2="0%"><stop offset="20%" stop-color="#005287" stop-opacity="1"></stop><stop offset="80%" stop-color="#003150" stop-opacity="1"></stop></linearGradient></defs><defs><linearGradient id="grad1_4" x1="33.3%" y1="100%" x2="100%" y2="0%"><stop offset="20%" stop-color="#001220" stop-opacity="1"></stop><stop offset="80%" stop-color="#003150" stop-opacity="1"></stop></linearGradient></defs><defs><linearGradient id="grad2_0" x1="0%" y1="100%" x2="66.7%" y2="0%"><stop offset="20%" stop-color="#0099ff" stop-opacity="1"></stop><stop offset="80%" stop-color="#0099ff" stop-opacity="1"></stop></linearGradient></defs><defs><linearGradient id="grad2_1" x1="0%" y1="100%" x2="66.7%" y2="0%"><stop offset="20%" stop-color="#0075c1" stop-opacity="1"></stop><stop offset="80%" stop-color="#0099ff" stop-opacity="1"></stop></linearGradient></defs><defs><linearGradient id="grad2_2" x1="0%" y1="100%" x2="66.7%" y2="0%"><stop offset="20%" stop-color="#0075c1" stop-opacity="1"></stop><stop offset="80%" stop-color="#005287" stop-opacity="1"></stop></linearGradient></defs><defs><linearGradient id="grad2_3" x1="0%" y1="100%" x2="66.7%" y2="0%"><stop offset="20%" stop-color="#003150" stop-opacity="1"></stop><stop offset="80%" stop-color="#005287" stop-opacity="1"></stop></linearGradient></defs><defs><linearGradient id="grad2_4" x1="0%" y1="100%" x2="66.7%" y2="0%"><stop offset="20%" stop-color="#003150" stop-opacity="1"></stop><stop offset="80%" stop-color="#001220" stop-opacity="1"></stop></linearGradient></defs><g transform="translate(900, 600)"><path d="M-540.8 0C-467.5 -50.2 -394.1 -100.4 -357.5 -148.1C-321 -195.7 -321.3 -240.8 -306.2 -306.2C-291.1 -371.5 -260.6 -457.2 -207 -499.7C-153.4 -542.2 -76.7 -541.5 0 -540.8L0 0Z" fill="#022137"></path><path d="M-432.7 0C-374 -40.2 -315.3 -80.4 -286 -118.5C-256.8 -156.6 -257 -192.7 -244.9 -244.9C-232.9 -297.2 -208.5 -365.7 -165.6 -399.7C-122.7 -433.7 -61.3 -433.2 0 -432.7L0 0Z" fill="#00416b"></path><path d="M-324.5 0C-280.5 -30.1 -236.5 -60.3 -214.5 -88.9C-192.6 -117.4 -192.8 -144.5 -183.7 -183.7C-174.6 -222.9 -156.3 -274.3 -124.2 -299.8C-92 -325.3 -46 -324.9 0 -324.5L0 0Z" fill="#0063a3"></path><path d="M-216.3 0C-187 -20.1 -157.6 -40.2 -143 -59.2C-128.4 -78.3 -128.5 -96.3 -122.5 -122.5C-116.4 -148.6 -104.2 -182.9 -82.8 -199.9C-61.3 -216.9 -30.7 -216.6 0 -216.3L0 0Z" fill="#0087e0"></path><path d="M-108.2 0C-93.5 -10 -78.8 -20.1 -71.5 -29.6C-64.2 -39.1 -64.3 -48.2 -61.2 -61.2C-58.2 -74.3 -52.1 -91.4 -41.4 -99.9C-30.7 -108.4 -15.3 -108.3 0 -108.2L0 0Z" fill="#0099ff"></path></g><g transform="translate(0, 0)"><path d="M540.8 0C514 61.2 487.2 122.4 466.6 193.3C445.9 264.1 431.5 344.5 382.4 382.4C333.4 420.4 249.7 415.8 180.2 435.1C110.7 454.5 55.4 497.7 0 540.8L0 0Z" fill="#022137"></path><path d="M432.7 0C411.2 49 389.8 98 373.2 154.6C356.7 211.3 345.2 275.6 305.9 305.9C266.7 336.3 199.8 332.7 144.2 348.1C88.6 363.6 44.3 398.1 0 432.7L0 0Z" fill="#00416b"></path><path d="M324.5 0C308.4 36.7 292.3 73.5 279.9 116C267.6 158.4 258.9 206.7 229.5 229.5C200 252.2 149.8 249.5 108.1 261.1C66.4 272.7 33.2 298.6 0 324.5L0 0Z" fill="#0063a3"></path><path d="M216.3 0C205.6 24.5 194.9 49 186.6 77.3C178.4 105.6 172.6 137.8 153 153C133.4 168.1 99.9 166.3 72.1 174.1C44.3 181.8 22.1 199.1 0 216.3L0 0Z" fill="#0087e0"></path><path d="M108.2 0C102.8 12.2 97.4 24.5 93.3 38.7C89.2 52.8 86.3 68.9 76.5 76.5C66.7 84.1 49.9 83.2 36 87C22.1 90.9 11.1 99.5 0 108.2L0 0Z" fill="#0099ff"></path></g></svg>